<svg xmlns="http://www.w3.org/2000/svg" width="24" height="24" viewBox="0 0 24 24"><defs><style>.a{fill:#4285f4;}.b{fill:#34a853;}.c{fill:#fbbc04;}.d{fill:#ea4335;}</style></defs><path class="a" d="M283.858,225.538a13.844,13.844,0,0,0-.211-2.438H272.1v4.621h6.612a5.549,5.549,0,0,1-2.447,3.646v3h3.945A11.6,11.6,0,0,0,283.858,225.538Z" transform="translate(-259.858 -213.262)"/><path class="b" d="M39.84,334a11.858,11.858,0,0,0,8.115-2.9l-3.945-3a7.434,7.434,0,0,1-4.165,1.146,7.314,7.314,0,0,1-6.873-4.951H28.9v3.091A12.272,12.272,0,0,0,39.84,334Z" transform="translate(-27.598 -310)"/><path class="c" d="M5.318,157.685a7.053,7.053,0,0,1,0-4.594V150H1.252a11.8,11.8,0,0,0,0,10.776Z" transform="translate(0.05 -143.385)"/><path class="d" d="M39.825,4.731a6.726,6.726,0,0,1,4.7,1.8h0l3.5-3.426A11.9,11.9,0,0,0,39.825-.018,12.269,12.269,0,0,0,28.885,6.6l4.067,3.09A7.307,7.307,0,0,1,39.825,4.731Z" transform="translate(-27.583 0.019)"/></svg>